
Format : AVI
Format/Info : Audio Video Interleave
File size : 1.42 GiB
Duration : 1h 26mn
Overall bit rate : 2 370 Kbps
Writing library : VirtualDub build 32842/release

Video
ID : 0
Format : MPEG-4 Visual
Format profile : Advanced Simple@L5
Format settings, BVOP : 2
Format settings, QPel : No
Format settings, GMC : No warppoints
Format settings, Matrix : Default (H.263)
Muxing mode : Packed bitstream
Codec ID : XVID
Codec ID/Hint : XviD
Duration : 1h 26mn
Bit rate : 1 912 Kbps
Width : 720 pixels
Height : 304 pixels
Display aspect ratio : 2.35:1
Frame rate : 25.000 fps
Color space : YUV
Chroma subsampling : 4:2:0
Bit depth : 8 bits
Scan type : Progressive
Compression mode : Lossy
Bits/(Pixel*Frame) : 0.349
Stream size : 1.15 GiB (81%)
Writing library : XviD 64

Audio
ID : 1
Format : AC-3
Format/Info : Audio Coding 3
Mode extension : CM (complete main)
Codec ID : 2000
Duration : 1h 26mn
Bit rate mode : Constant
Bit rate : 448 Kbps
Channel(s) : 6 channels
Channel positions : Front: L C R, Side: L R, LFE
Sampling rate : 48.0 KHz
Bit depth : 16 bits
Compression mode : Lossy
Stream size : 276 MiB (19%)
Alignment : Aligned on interleaves
Interleave, duration : 40 ms (1.00 video frame)
Interleave, preload duration : 512 ms








 
http://www.imdb.com/title/tt1785353/





Storyline

Told over one horrifying night, Deviation will take you on a white-knuckle journey into the mind of Frank Norton, a dangerous schizophrenic murderer as he escapes from Broadmoor Hospital and embarks on a murderous rampage across London. But when Frankie takes a hostage, the deadly game of cat-and-mouse truly begins.







Source Used



Legend PAL DVDR ...........Thanks




Enjoy
 
http://i27.fastpic.ru/big/2012/0227/ba/577f5cb111cfca0ca0fc55686bfec2ba.jpg